<svg xmlns="http://www.w3.org/2000/svg" width="9" height="9" viewBox="0 0 9 9">
  <metadata><?xpacket begin="﻿" id="W5M0MpCehiHzreSzNTczkc9d"?>
<x:xmpmeta xmlns:x="adobe:ns:meta/" x:xmptk="Adobe XMP Core 5.6-c142 79.160924, 2017/07/13-01:06:39        ">
   <rdf:RDF xmlns:rdf="http://www.w3.org/1999/02/22-rdf-syntax-ns#">
      <rdf:Description rdf:about=""/>
   </rdf:RDF>
</x:xmpmeta>
                                                                                                    
                                                                                                    
                                                                                                    
                                                                                                    
                                                                                                    
                                                                                                    
                                                                                                    
                                                                                                    
                                                                                                    
                                                                                                    
                                                                                                    
                                                                                                    
                                                                                                    
                                                                                                    
                                                                                                    
                                                                                                    
                                                                                                    
                                                                                                    
                                                                                                    
                                                                                                    
                           
<?xpacket end="w"?></metadata>
<defs>
    <style>
      .cls-1 {
        fill: #8c8c8c;
        fill-rule: evenodd;
      }
    </style>
  </defs>
  <path id="themeLight" class="cls-1" d="M11.685,11.994a0.324,0.324,0,0,0,.325-0.324V6.321A0.324,0.324,0,0,0,11.685,6h-1.2a0.324,0.324,0,0,0-.325.324v3.828H6.317a0.324,0.324,0,0,0-.326.324v1.2a0.324,0.324,0,0,0,.326.324h5.368ZM3.315,3.006a0.324,0.324,0,0,0-.326.324V8.679A0.324,0.324,0,0,0,3.315,9h1.2a0.324,0.324,0,0,0,.326-0.324V4.851H8.683a0.324,0.324,0,0,0,.326-0.324V3.33a0.324,0.324,0,0,0-.326-0.324H3.315Z" transform="translate(-3 -3)"/>
</svg>
