<svg xmlns="http://www.w3.org/2000/svg" width="88" height="40" viewBox="0 0 88 40">
  <metadata><?xpacket begin="﻿" id="W5M0MpCehiHzreSzNTczkc9d"?>
<x:xmpmeta xmlns:x="adobe:ns:meta/" x:xmptk="Adobe XMP Core 5.6-c142 79.160924, 2017/07/13-01:06:39        ">
   <rdf:RDF xmlns:rdf="http://www.w3.org/1999/02/22-rdf-syntax-ns#">
      <rdf:Description rdf:about=""/>
   </rdf:RDF>
</x:xmpmeta>
                                                                                                    
                                                                                                    
                                                                                                    
                                                                                                    
                                                                                                    
                                                                                                    
                                                                                                    
                                                                                                    
                                                                                                    
                                                                                                    
                                                                                                    
                                                                                                    
                                                                                                    
                                                                                                    
                                                                                                    
                                                                                                    
                                                                                                    
                                                                                                    
                                                                                                    
                                                                                                    
                           
<?xpacket end="w"?></metadata>
<defs>
    <style>
      .cls-1 {
        fill: #fff;
        fill-rule: evenodd;
      }
    </style>
  </defs>
  <path id="_2_white" data-name="2 white" class="cls-1" d="M31.865,0H23.331L15.853,10.3,8.539,0H0V35.053H9V13.862H9.093l6.76,9.438,6.934-9.438h0.082V35.053h9V0Zm31.2,8.977h-9v7.06H45.129a22.38,22.38,0,0,1,1.923-3.975A8.76,8.76,0,0,1,50.6,9.189,15.5,15.5,0,0,1,57.53,7.9h7.057L62.484,0H58.073a42.751,42.751,0,0,0-6.5.44,19.419,19.419,0,0,0-5.441,1.692,17.232,17.232,0,0,0-4.9,3.609,19.4,19.4,0,0,0-3.467,4.871,24.4,24.4,0,0,0-2.051,5.777,28.665,28.665,0,0,0-.667,6.175,29.694,29.694,0,0,0,.636,6.07,32.364,32.364,0,0,0,1.841,5.929,33.774,33.774,0,0,0,2.867,5.421l7.3-4.934a22.49,22.49,0,0,1-3.447-11.114h9.827V35.053h9V8.981ZM76.18,0h-9V35.053h18.7l2.1-7.9H76.18V0Z"/>
</svg>
